<?xml version="1.0" encoding="UTF-8" standalone="yes"?><svg xmlns="http://www.w3.org/2000/svg" xmlns:xlink="http://www.w3.org/1999/xlink" height="667px" style="width:1001px;height:667px;" version="1.1" viewBox="0 0 1001 667" width="1001px"><defs/><g><rect fill="#FFFFFF" height="545.5684" style="stroke: #383838; stroke-width: 1.0;" width="10" x="93" y="73.4883"/><rect fill="#FFFFFF" height="29.3105" style="stroke: #383838; stroke-width: 1.0;" width="10" x="221.5" y="107.7988"/><rect fill="#FFFFFF" height="438.6367" style="stroke: #383838; stroke-width: 1.0;" width="10" x="509.5" y="151.4199"/><rect fill="#FFFFFF" height="352.0156" style="stroke: #000000; stroke-width: 2.0;" width="866" x="13" y="225.041"/><rect fill="#FFFFFF" height="219.7734" style="stroke: #000000; stroke-width: 2.0;" width="635.5" x="23" y="350.2832"/><rect fill="#FFFFFF" height="86.5762" style="stroke: none; stroke-width: 1.0;" width="635.5" x="23" y="426.2148"/><rect fill="#FFFFFF" height="57.2656" style="stroke: none; stroke-width: 1.0;" width="635.5" x="23" y="512.791"/><line style="stroke: #383838; stroke-width: 1.0; stroke-dasharray: 5.0,5.0;" x1="98" x2="98" y1="34.4883" y2="637.3672"/><line style="stroke: #383838; stroke-width: 1.0; stroke-dasharray: 5.0,5.0;" x1="226" x2="226" y1="34.4883" y2="637.3672"/><line style="stroke: #383838; stroke-width: 1.0; stroke-dasharray: 5.0,5.0;" x1="350" x2="350" y1="34.4883" y2="637.3672"/><line style="stroke: #383838; stroke-width: 1.0; stroke-dasharray: 5.0,5.0;" x1="514" x2="514" y1="34.4883" y2="637.3672"/><line style="stroke: #383838; stroke-width: 1.0; stroke-dasharray: 5.0,5.0;" x1="673" x2="673" y1="34.4883" y2="637.3672"/><line style="stroke: #383838; stroke-width: 1.0; stroke-dasharray: 5.0,5.0;" x1="804" x2="804" y1="34.4883" y2="637.3672"/><line style="stroke: #383838; stroke-width: 1.0; stroke-dasharray: 5.0,5.0;" x1="939" x2="939" y1="34.4883" y2="637.3672"/><rect fill="#F8F8F8" height="30.4883" style="stroke: #383838; stroke-width: 1.5;" width="130" x="33" y="3"/><text fill="#000000" font-family="sans-serif" font-size="14" lengthAdjust="spacingAndGlyphs" textLength="116" x="40" y="23.5352">RaftStateContext</text><rect fill="#F8F8F8" height="30.4883" style="stroke: #383838; stroke-width: 1.5;" width="130" x="33" y="636.3672"/><text fill="#000000" font-family="sans-serif" font-size="14" lengthAdjust="spacingAndGlyphs" textLength="116" x="40" y="656.9023">RaftStateContext</text><rect fill="#F8F8F8" height="30.4883" style="stroke: #383838; stroke-width: 1.5;" width="107" x="173" y="3"/><text fill="#000000" font-family="sans-serif" font-size="14" lengthAdjust="spacingAndGlyphs" textLength="93" x="180" y="23.5352">FollowerState</text><rect fill="#F8F8F8" height="30.4883" style="stroke: #383838; stroke-width: 1.5;" width="107" x="173" y="636.3672"/><text fill="#000000" font-family="sans-serif" font-size="14" lengthAdjust="spacingAndGlyphs" textLength="93" x="180" y="656.9023">FollowerState</text><rect fill="#F8F8F8" height="30.4883" style="stroke: #383838; stroke-width: 1.5;" width="121" x="290" y="3"/><text fill="#000000" font-family="sans-serif" font-size="14" lengthAdjust="spacingAndGlyphs" textLength="107" x="297" y="23.5352">HeartbeatTimer</text><rect fill="#F8F8F8" height="30.4883" style="stroke: #383838; stroke-width: 1.5;" width="121" x="290" y="636.3672"/><text fill="#000000" font-family="sans-serif" font-size="14" lengthAdjust="spacingAndGlyphs" textLength="107" x="297" y="656.9023">HeartbeatTimer</text><rect fill="#F8F8F8" height="30.4883" style="stroke: #383838; stroke-width: 1.5;" width="187" x="421" y="3"/><text fill="#000000" font-family="sans-serif" font-size="14" lengthAdjust="spacingAndGlyphs" textLength="173" x="428" y="23.5352">RaftStateContext.register</text><rect fill="#F8F8F8" height="30.4883" style="stroke: #383838; stroke-width: 1.5;" width="187" x="421" y="636.3672"/><text fill="#000000" font-family="sans-serif" font-size="14" lengthAdjust="spacingAndGlyphs" textLength="173" x="428" y="656.9023">RaftStateContext.register</text><rect fill="#F8F8F8" height="30.4883" style="stroke: #383838; stroke-width: 1.5;" width="111" x="618" y="3"/><text fill="#000000" font-family="sans-serif" font-size="14" lengthAdjust="spacingAndGlyphs" textLength="97" x="625" y="23.5352">ClusterService</text><rect fill="#F8F8F8" height="30.4883" style="stroke: #383838; stroke-width: 1.5;" width="111" x="618" y="636.3672"/><text fill="#000000" font-family="sans-serif" font-size="14" lengthAdjust="spacingAndGlyphs" textLength="97" x="625" y="656.9023">ClusterService</text><rect fill="#F8F8F8" height="30.4883" style="stroke: #383838; stroke-width: 1.5;" width="130" x="739" y="3"/><text fill="#000000" font-family="sans-serif" font-size="14" lengthAdjust="spacingAndGlyphs" textLength="116" x="746" y="23.5352">TransportService</text><rect fill="#F8F8F8" height="30.4883" style="stroke: #383838; stroke-width: 1.5;" width="130" x="739" y="636.3672"/><text fill="#000000" font-family="sans-serif" font-size="14" lengthAdjust="spacingAndGlyphs" textLength="116" x="746" y="656.9023">TransportService</text><rect fill="#F8F8F8" height="30.4883" style="stroke: #383838; stroke-width: 1.5;" width="121" x="879" y="3"/><text fill="#000000" font-family="sans-serif" font-size="14" lengthAdjust="spacingAndGlyphs" textLength="107" x="886" y="23.5352">KeepAliveTimer</text><rect fill="#F8F8F8" height="30.4883" style="stroke: #383838; stroke-width: 1.5;" width="121" x="879" y="636.3672"/><text fill="#000000" font-family="sans-serif" font-size="14" lengthAdjust="spacingAndGlyphs" textLength="107" x="886" y="656.9023">KeepAliveTimer</text><rect fill="#FFFFFF" height="545.5684" style="stroke: #383838; stroke-width: 1.0;" width="10" x="93" y="73.4883"/><rect fill="#FFFFFF" height="29.3105" style="stroke: #383838; stroke-width: 1.0;" width="10" x="221.5" y="107.7988"/><rect fill="#FFFFFF" height="438.6367" style="stroke: #383838; stroke-width: 1.0;" width="10" x="509.5" y="151.4199"/><line style="stroke: #383838; stroke-width: 1.0;" x1="98" x2="145" y1="60.7988" y2="60.7988"/><line style="stroke: #383838; stroke-width: 1.0;" x1="145" x2="145" y1="60.7988" y2="73.7988"/><line style="stroke: #383838; stroke-width: 1.0;" x1="104" x2="145" y1="73.7988" y2="73.7988"/><polygon fill="#383838" points="114,69.7988,104,73.7988,114,77.7988,110,73.7988" style="stroke: #383838; stroke-width: 1.0;"/><text fill="#000000" font-family="sans-serif" font-size="13" lengthAdjust="spacingAndGlyphs" textLength="29" x="110" y="56.0566">start</text><polygon fill="#383838" points="209.5,103.7988,219.5,107.7988,209.5,111.7988,213.5,107.7988" style="stroke: #383838; stroke-width: 1.0;"/><line style="stroke: #383838; stroke-width: 1.0;" x1="103" x2="215.5" y1="107.7988" y2="107.7988"/><text fill="#000000" font-family="sans-serif" font-size="13" lengthAdjust="spacingAndGlyphs" textLength="61" x="110" y="103.3672">transition</text><polygon fill="#383838" points="338.5,133.1094,348.5,137.1094,338.5,141.1094,342.5,137.1094" style="stroke: #383838; stroke-width: 1.0;"/><line style="stroke: #383838; stroke-width: 1.0; stroke-dasharray: 2.0,2.0;" x1="226.5" x2="344.5" y1="137.1094" y2="137.1094"/><text fill="#000000" font-family="sans-serif" font-size="13" lengthAdjust="spacingAndGlyphs" textLength="29" x="233.5" y="132.6777">start</text><polygon fill="#383838" points="497.5,147.4199,507.5,151.4199,497.5,155.4199,501.5,151.4199" style="stroke: #383838; stroke-width: 1.0;"/><line style="stroke: #383838; stroke-width: 1.0;" x1="103" x2="503.5" y1="151.4199" y2="151.4199"/><polygon fill="#383838" points="661.5,176.4199,671.5,180.4199,661.5,184.4199,665.5,180.4199" style="stroke: #383838; stroke-width: 1.0;"/><line style="stroke: #383838; stroke-width: 1.0;" x1="519.5" x2="667.5" y1="180.4199" y2="180.4199"/><text fill="#000000" font-family="sans-serif" font-size="13" lengthAdjust="spacingAndGlyphs" textLength="82" x="526.5" y="175.9883">get members</text><polygon fill="#383838" points="530.5,205.7305,520.5,209.7305,530.5,213.7305,526.5,209.7305" style="stroke: #383838; stroke-width: 1.0;"/><line style="stroke: #383838; stroke-width: 1.0; stroke-dasharray: 2.0,2.0;" x1="524.5" x2="672.5" y1="209.7305" y2="209.7305"/><text fill="#000000" font-family="sans-serif" font-size="13" lengthAdjust="spacingAndGlyphs" textLength="39" x="536.5" y="205.2988">node[]</text><rect fill="none" height="352.0156" style="stroke: #000000; stroke-width: 2.0;" width="866" x="13" y="225.041"/><polygon fill="#EEEEEE" points="13,225.041,87,225.041,87,232.041,77,242.041,13,242.041,13,225.041" style="stroke: #000000; stroke-width: 2.0;"/><text fill="#000000" font-family="sans-serif" font-size="13" font-weight="bold" lengthAdjust="spacingAndGlyphs" textLength="29" x="28" y="238.6094">loop</text><line style="stroke: #383838; stroke-width: 1.0;" x1="519.5" x2="561.5" y1="263.6621" y2="263.6621"/><line style="stroke: #383838; stroke-width: 1.0;" x1="561.5" x2="561.5" y1="263.6621" y2="276.6621"/><line style="stroke: #383838; stroke-width: 1.0;" x1="520.5" x2="561.5" y1="276.6621" y2="276.6621"/><polygon fill="#383838" points="530.5,272.6621,520.5,276.6621,530.5,280.6621,526.5,276.6621" style="stroke: #383838; stroke-width: 1.0;"/><text fill="#000000" font-family="sans-serif" font-size="13" lengthAdjust="spacingAndGlyphs" textLength="104" x="526.5" y="258.9199">select next node</text><polygon fill="#383838" points="792,301.6621,802,305.6621,792,309.6621,796,305.6621" style="stroke: #383838; stroke-width: 1.0;"/><line style="stroke: #383838; stroke-width: 1.0;" x1="519.5" x2="798" y1="305.6621" y2="305.6621"/><text fill="#000000" font-family="sans-serif" font-size="13" lengthAdjust="spacingAndGlyphs" textLength="139" x="526.5" y="301.2305">send(RegisterRequest)</text><polygon fill="#383838" points="530.5,330.9727,520.5,334.9727,530.5,338.9727,526.5,334.9727" style="stroke: #383838; stroke-width: 1.0;"/><line style="stroke: #383838; stroke-width: 1.0; stroke-dasharray: 2.0,2.0;" x1="524.5" x2="803" y1="334.9727" y2="334.9727"/><text fill="#000000" font-family="sans-serif" font-size="13" lengthAdjust="spacingAndGlyphs" textLength="111" x="536.5" y="330.541">RegisterResponse</text><rect fill="none" height="219.7734" style="stroke: #000000; stroke-width: 2.0;" width="635.5" x="23" y="350.2832"/><polygon fill="#EEEEEE" points="23,350.2832,85,350.2832,85,357.2832,75,367.2832,23,367.2832,23,350.2832" style="stroke: #000000; stroke-width: 2.0;"/><text fill="#000000" font-family="sans-serif" font-size="13" font-weight="bold" lengthAdjust="spacingAndGlyphs" textLength="17" x="38" y="363.8516">alt</text><text fill="#000000" font-family="sans-serif" font-size="11" font-weight="bold" lengthAdjust="spacingAndGlyphs" textLength="51" x="100" y="362.918">[success]</text><polygon fill="#383838" points="114,384.5938,104,388.5938,114,392.5938,110,388.5938" style="stroke: #383838; stroke-width: 1.0;"/><line style="stroke: #383838; stroke-width: 1.0;" x1="108" x2="508.5" y1="388.5938" y2="388.5938"/><text fill="#000000" font-family="sans-serif" font-size="13" lengthAdjust="spacingAndGlyphs" textLength="61" x="120" y="384.1621">set leader</text><polygon fill="#383838" points="114,413.9043,104,417.9043,114,421.9043,110,417.9043" style="stroke: #383838; stroke-width: 1.0;"/><line style="stroke: #383838; stroke-width: 1.0;" x1="108" x2="508.5" y1="417.9043" y2="417.9043"/><text fill="#000000" font-family="sans-serif" font-size="13" lengthAdjust="spacingAndGlyphs" textLength="71" x="120" y="413.4727">set session</text><line style="stroke: #000000; stroke-width: 1.0; stroke-dasharray: 2.0,2.0;" x1="23" x2="658.5" y1="427.2148" y2="427.2148"/><text fill="#000000" font-family="sans-serif" font-size="11" font-weight="bold" lengthAdjust="spacingAndGlyphs" textLength="36" x="28" y="437.8496">[error]</text><polygon fill="#383838" points="114,458.1699,104,462.1699,114,466.1699,110,462.1699" style="stroke: #383838; stroke-width: 1.0;"/><line style="stroke: #383838; stroke-width: 1.0;" x1="108" x2="508.5" y1="462.1699" y2="462.1699"/><text fill="#000000" font-family="sans-serif" font-size="13" lengthAdjust="spacingAndGlyphs" textLength="81" x="120" y="457.7383">set no leader</text><line style="stroke: #383838; stroke-width: 1.0;" x1="519.5" x2="561.5" y1="491.791" y2="491.791"/><line style="stroke: #383838; stroke-width: 1.0;" x1="561.5" x2="561.5" y1="491.791" y2="504.791"/><line style="stroke: #383838; stroke-width: 1.0;" x1="520.5" x2="561.5" y1="504.791" y2="504.791"/><polygon fill="#383838" points="530.5,500.791,520.5,504.791,530.5,508.791,526.5,504.791" style="stroke: #383838; stroke-width: 1.0;"/><text fill="#000000" font-family="sans-serif" font-size="13" lengthAdjust="spacingAndGlyphs" textLength="87" x="526.5" y="487.0488">continue loop</text><line style="stroke: #000000; stroke-width: 1.0; stroke-dasharray: 2.0,2.0;" x1="23" x2="658.5" y1="513.791" y2="513.791"/><text fill="#000000" font-family="sans-serif" font-size="11" font-weight="bold" lengthAdjust="spacingAndGlyphs" textLength="60" x="28" y="524.4258">[no leader]</text><line style="stroke: #383838; stroke-width: 1.0;" x1="519.5" x2="561.5" y1="549.0566" y2="549.0566"/><line style="stroke: #383838; stroke-width: 1.0;" x1="561.5" x2="561.5" y1="549.0566" y2="562.0566"/><line style="stroke: #383838; stroke-width: 1.0;" x1="520.5" x2="561.5" y1="562.0566" y2="562.0566"/><polygon fill="#383838" points="530.5,558.0566,520.5,562.0566,530.5,566.0566,526.5,562.0566" style="stroke: #383838; stroke-width: 1.0;"/><text fill="#000000" font-family="sans-serif" font-size="13" lengthAdjust="spacingAndGlyphs" textLength="120" x="526.5" y="544.3145">schedule next loop</text><polygon fill="#383838" points="114,586.0566,104,590.0566,114,594.0566,110,590.0566" style="stroke: #383838; stroke-width: 1.0;"/><line style="stroke: #383838; stroke-width: 1.0; stroke-dasharray: 2.0,2.0;" x1="108" x2="513.5" y1="590.0566" y2="590.0566"/><polygon fill="#383838" points="927.5,615.0566,937.5,619.0566,927.5,623.0566,931.5,619.0566" style="stroke: #383838; stroke-width: 1.0;"/><line style="stroke: #383838; stroke-width: 1.0;" x1="98" x2="933.5" y1="619.0566" y2="619.0566"/><text fill="#000000" font-family="sans-serif" font-size="13" lengthAdjust="spacingAndGlyphs" textLength="29" x="105" y="614.625">start</text></g></svg>