<?xml version="1.0" encoding="UTF-8" standalone="yes"?><svg xmlns="http://www.w3.org/2000/svg" xmlns:xlink="http://www.w3.org/1999/xlink" height="506px" style="width:1033px;height:506px;" version="1.1" viewBox="0 0 1033 506" width="1033px"><defs/><g><rect fill="#FFFFFF" height="100.9316" style="stroke: #383838; stroke-width: 1.0;" width="10" x="325" y="65.4883"/><rect fill="#FFFFFF" height="202.8633" style="stroke: #383838; stroke-width: 1.0;" width="10" x="325" y="248.041"/><rect fill="#FFFFFF" height="86.9316" style="stroke: #383838; stroke-width: 1.0;" width="10" x="675.5" y="349.9727"/><rect fill="#FFFFFF" height="43.6211" style="stroke: #383838; stroke-width: 1.0;" width="10" x="825.5" y="379.2832"/><rect fill="#FFFFFF" height="249.1738" style="stroke: #000000; stroke-width: 2.0;" width="894.5" x="138" y="209.7305"/><line style="stroke: #383838; stroke-width: 1.0;" x1="73" x2="73" y1="34.4883" y2="174.7305"/><line style="stroke: #383838; stroke-width: 1.0; stroke-dasharray: 1.0,4.0;" x1="73" x2="73" y1="174.7305" y2="202.7305"/><line style="stroke: #383838; stroke-width: 1.0;" x1="73" x2="73" y1="202.7305" y2="475.9043"/><line style="stroke: #383838; stroke-width: 1.0;" x1="205" x2="205" y1="34.4883" y2="174.7305"/><line style="stroke: #383838; stroke-width: 1.0; stroke-dasharray: 1.0,4.0;" x1="205" x2="205" y1="174.7305" y2="202.7305"/><line style="stroke: #383838; stroke-width: 1.0;" x1="205" x2="205" y1="202.7305" y2="475.9043"/><line style="stroke: #383838; stroke-width: 1.0;" x1="330" x2="330" y1="34.4883" y2="174.7305"/><line style="stroke: #383838; stroke-width: 1.0; stroke-dasharray: 1.0,4.0;" x1="330" x2="330" y1="174.7305" y2="202.7305"/><line style="stroke: #383838; stroke-width: 1.0;" x1="330" x2="330" y1="202.7305" y2="475.9043"/><line style="stroke: #383838; stroke-width: 1.0;" x1="492" x2="492" y1="34.4883" y2="174.7305"/><line style="stroke: #383838; stroke-width: 1.0; stroke-dasharray: 1.0,4.0;" x1="492" x2="492" y1="174.7305" y2="202.7305"/><line style="stroke: #383838; stroke-width: 1.0;" x1="492" x2="492" y1="202.7305" y2="475.9043"/><line style="stroke: #383838; stroke-width: 1.0;" x1="576" x2="576" y1="34.4883" y2="174.7305"/><line style="stroke: #383838; stroke-width: 1.0; stroke-dasharray: 1.0,4.0;" x1="576" x2="576" y1="174.7305" y2="202.7305"/><line style="stroke: #383838; stroke-width: 1.0;" x1="576" x2="576" y1="202.7305" y2="475.9043"/><line style="stroke: #383838; stroke-width: 1.0;" x1="680" x2="680" y1="34.4883" y2="174.7305"/><line style="stroke: #383838; stroke-width: 1.0; stroke-dasharray: 1.0,4.0;" x1="680" x2="680" y1="174.7305" y2="202.7305"/><line style="stroke: #383838; stroke-width: 1.0;" x1="680" x2="680" y1="202.7305" y2="475.9043"/><line style="stroke: #383838; stroke-width: 1.0;" x1="830" x2="830" y1="34.4883" y2="174.7305"/><line style="stroke: #383838; stroke-width: 1.0; stroke-dasharray: 1.0,4.0;" x1="830" x2="830" y1="174.7305" y2="202.7305"/><line style="stroke: #383838; stroke-width: 1.0;" x1="830" x2="830" y1="202.7305" y2="475.9043"/><line style="stroke: #383838; stroke-width: 1.0;" x1="986.5" x2="986.5" y1="34.4883" y2="174.7305"/><line style="stroke: #383838; stroke-width: 1.0; stroke-dasharray: 1.0,4.0;" x1="986.5" x2="986.5" y1="174.7305" y2="202.7305"/><line style="stroke: #383838; stroke-width: 1.0;" x1="986.5" x2="986.5" y1="202.7305" y2="475.9043"/><rect fill="#F8F8F8" height="30.4883" style="stroke: #383838; stroke-width: 1.5;" width="130" x="8" y="3"/><text fill="#000000" font-family="sans-serif" font-size="14" lengthAdjust="spacingAndGlyphs" textLength="116" x="15" y="23.5352">RaftStateContext</text><rect fill="#F8F8F8" height="30.4883" style="stroke: #383838; stroke-width: 1.5;" width="130" x="8" y="474.9043"/><text fill="#000000" font-family="sans-serif" font-size="14" lengthAdjust="spacingAndGlyphs" textLength="116" x="15" y="495.4395">RaftStateContext</text><rect fill="#F8F8F8" height="30.4883" style="stroke: #383838; stroke-width: 1.5;" width="114" x="148" y="3"/><text fill="#000000" font-family="sans-serif" font-size="14" lengthAdjust="spacingAndGlyphs" textLength="100" x="155" y="23.5352">RegisterAction</text><rect fill="#F8F8F8" height="30.4883" style="stroke: #383838; stroke-width: 1.5;" width="114" x="148" y="474.9043"/><text fill="#000000" font-family="sans-serif" font-size="14" lengthAdjust="spacingAndGlyphs" textLength="100" x="155" y="495.4395">RegisterAction</text><rect fill="#F8F8F8" height="30.4883" style="stroke: #383838; stroke-width: 1.5;" width="94" x="283" y="3"/><text fill="#000000" font-family="sans-serif" font-size="14" lengthAdjust="spacingAndGlyphs" textLength="80" x="290" y="23.5352">LeaderState</text><rect fill="#F8F8F8" height="30.4883" style="stroke: #383838; stroke-width: 1.5;" width="94" x="283" y="474.9043"/><text fill="#000000" font-family="sans-serif" font-size="14" lengthAdjust="spacingAndGlyphs" textLength="80" x="290" y="495.4395">LeaderState</text><rect fill="#F8F8F8" height="30.4883" style="stroke: #383838; stroke-width: 1.5;" width="66" x="459" y="3"/><text fill="#000000" font-family="sans-serif" font-size="14" lengthAdjust="spacingAndGlyphs" textLength="52" x="466" y="23.5352">RaftLog</text><rect fill="#F8F8F8" height="30.4883" style="stroke: #383838; stroke-width: 1.5;" width="66" x="459" y="474.9043"/><text fill="#000000" font-family="sans-serif" font-size="14" lengthAdjust="spacingAndGlyphs" textLength="52" x="466" y="495.4395">RaftLog</text><rect fill="#F8F8F8" height="30.4883" style="stroke: #383838; stroke-width: 1.5;" width="83" x="535" y="3"/><text fill="#000000" font-family="sans-serif" font-size="14" lengthAdjust="spacingAndGlyphs" textLength="69" x="542" y="23.5352">Replicator</text><rect fill="#F8F8F8" height="30.4883" style="stroke: #383838; stroke-width: 1.5;" width="83" x="535" y="474.9043"/><text fill="#000000" font-family="sans-serif" font-size="14" lengthAdjust="spacingAndGlyphs" textLength="69" x="542" y="495.4395">Replicator</text><rect fill="#F8F8F8" height="30.4883" style="stroke: #383838; stroke-width: 1.5;" width="105" x="628" y="3"/><text fill="#000000" font-family="sans-serif" font-size="14" lengthAdjust="spacingAndGlyphs" textLength="91" x="635" y="23.5352">StateMachine</text><rect fill="#F8F8F8" height="30.4883" style="stroke: #383838; stroke-width: 1.5;" width="105" x="628" y="474.9043"/><text fill="#000000" font-family="sans-serif" font-size="14" lengthAdjust="spacingAndGlyphs" textLength="91" x="635" y="495.4395">StateMachine</text><rect fill="#F8F8F8" height="30.4883" style="stroke: #383838; stroke-width: 1.5;" width="75" x="793" y="3"/><text fill="#000000" font-family="sans-serif" font-size="14" lengthAdjust="spacingAndGlyphs" textLength="61" x="800" y="23.5352">RaftState</text><rect fill="#F8F8F8" height="30.4883" style="stroke: #383838; stroke-width: 1.5;" width="75" x="793" y="474.9043"/><text fill="#000000" font-family="sans-serif" font-size="14" lengthAdjust="spacingAndGlyphs" textLength="61" x="800" y="495.4395">RaftState</text><rect fill="#F8F8F8" height="30.4883" style="stroke: #383838; stroke-width: 1.5;" width="72" x="950.5" y="3"/><text fill="#000000" font-family="sans-serif" font-size="14" lengthAdjust="spacingAndGlyphs" textLength="58" x="957.5" y="23.5352">sessions</text><rect fill="#F8F8F8" height="30.4883" style="stroke: #383838; stroke-width: 1.5;" width="72" x="950.5" y="474.9043"/><text fill="#000000" font-family="sans-serif" font-size="14" lengthAdjust="spacingAndGlyphs" textLength="58" x="957.5" y="495.4395">sessions</text><rect fill="#FFFFFF" height="100.9316" style="stroke: #383838; stroke-width: 1.0;" width="10" x="325" y="65.4883"/><rect fill="#FFFFFF" height="202.8633" style="stroke: #383838; stroke-width: 1.0;" width="10" x="325" y="248.041"/><rect fill="#FFFFFF" height="86.9316" style="stroke: #383838; stroke-width: 1.0;" width="10" x="675.5" y="349.9727"/><rect fill="#FFFFFF" height="43.6211" style="stroke: #383838; stroke-width: 1.0;" width="10" x="825.5" y="379.2832"/><polygon fill="#383838" points="313,61.4883,323,65.4883,313,69.4883,317,65.4883" style="stroke: #383838; stroke-width: 1.0;"/><line style="stroke: #383838; stroke-width: 1.0;" x1="73" x2="319" y1="65.4883" y2="65.4883"/><text fill="#000000" font-family="sans-serif" font-size="13" lengthAdjust="spacingAndGlyphs" textLength="61" x="80" y="61.0566">transition</text><line style="stroke: #383838; stroke-width: 1.0;" x1="335" x2="377" y1="95.1094" y2="95.1094"/><line style="stroke: #383838; stroke-width: 1.0;" x1="377" x2="377" y1="95.1094" y2="108.1094"/><line style="stroke: #383838; stroke-width: 1.0;" x1="336" x2="377" y1="108.1094" y2="108.1094"/><polygon fill="#383838" points="346,104.1094,336,108.1094,346,112.1094,342,108.1094" style="stroke: #383838; stroke-width: 1.0;"/><text fill="#000000" font-family="sans-serif" font-size="13" lengthAdjust="spacingAndGlyphs" textLength="31" x="342" y="90.3672">open</text><polygon fill="#383838" points="84,133.1094,74,137.1094,84,141.1094,80,137.1094" style="stroke: #383838; stroke-width: 1.0;"/><line style="stroke: #383838; stroke-width: 1.0;" x1="78" x2="324" y1="137.1094" y2="137.1094"/><text fill="#000000" font-family="sans-serif" font-size="13" lengthAdjust="spacingAndGlyphs" textLength="130" x="90" y="132.6777">set leader local node</text><polygon fill="#383838" points="84,162.4199,74,166.4199,84,170.4199,80,166.4199" style="stroke: #383838; stroke-width: 1.0;"/><line style="stroke: #383838; stroke-width: 1.0; stroke-dasharray: 2.0,2.0;" x1="78" x2="329" y1="166.4199" y2="166.4199"/><text fill="#000000" font-family="sans-serif" font-size="13" lengthAdjust="spacingAndGlyphs" textLength="61" x="90" y="161.9883">transition</text><rect fill="none" height="249.1738" style="stroke: #000000; stroke-width: 2.0;" width="894.5" x="138" y="209.7305"/><polygon fill="#EEEEEE" points="138,209.7305,345,209.7305,345,216.7305,335,226.7305,138,226.7305,138,209.7305" style="stroke: #000000; stroke-width: 2.0;"/><text fill="#000000" font-family="sans-serif" font-size="13" font-weight="bold" lengthAdjust="spacingAndGlyphs" textLength="162" x="153" y="223.2988">handle RegisterRequest</text><polygon fill="#383838" points="313,244.041,323,248.041,313,252.041,317,248.041" style="stroke: #383838; stroke-width: 1.0;"/><line style="stroke: #383838; stroke-width: 1.0;" x1="205" x2="319" y1="248.041" y2="248.041"/><text fill="#000000" font-family="sans-serif" font-size="13" lengthAdjust="spacingAndGlyphs" textLength="101" x="212" y="243.6094">RegisterRequest</text><polygon fill="#383838" points="480,273.3516,490,277.3516,480,281.3516,484,277.3516" style="stroke: #383838; stroke-width: 1.0;"/><line style="stroke: #383838; stroke-width: 1.0;" x1="335" x2="486" y1="277.3516" y2="277.3516"/><text fill="#000000" font-family="sans-serif" font-size="13" lengthAdjust="spacingAndGlyphs" textLength="133" x="342" y="272.9199">append RegisterEntry</text><polygon fill="#383838" points="564.5,302.6621,574.5,306.6621,564.5,310.6621,568.5,306.6621" style="stroke: #383838; stroke-width: 1.0;"/><line style="stroke: #383838; stroke-width: 1.0;" x1="335" x2="570.5" y1="306.6621" y2="306.6621"/><text fill="#000000" font-family="sans-serif" font-size="13" lengthAdjust="spacingAndGlyphs" textLength="48" x="342" y="302.2305">commit</text><polygon fill="#383838" points="346,316.9727,336,320.9727,346,324.9727,342,320.9727" style="stroke: #383838; stroke-width: 1.0;"/><line style="stroke: #383838; stroke-width: 1.0; stroke-dasharray: 2.0,2.0;" x1="340" x2="575.5" y1="320.9727" y2="320.9727"/><polygon fill="#383838" points="663.5,345.9727,673.5,349.9727,663.5,353.9727,667.5,349.9727" style="stroke: #383838; stroke-width: 1.0;"/><line style="stroke: #383838; stroke-width: 1.0;" x1="335" x2="669.5" y1="349.9727" y2="349.9727"/><text fill="#000000" font-family="sans-serif" font-size="13" lengthAdjust="spacingAndGlyphs" textLength="121" x="342" y="345.541">apply RegisterEntry</text><polygon fill="#383838" points="813.5,375.2832,823.5,379.2832,813.5,383.2832,817.5,379.2832" style="stroke: #383838; stroke-width: 1.0;"/><line style="stroke: #383838; stroke-width: 1.0;" x1="685.5" x2="819.5" y1="379.2832" y2="379.2832"/><text fill="#000000" font-family="sans-serif" font-size="13" lengthAdjust="spacingAndGlyphs" textLength="121" x="692.5" y="374.8516">apply RegisterEntry</text><polygon fill="#383838" points="974.5,404.5938,984.5,408.5938,974.5,412.5938,978.5,408.5938" style="stroke: #383838; stroke-width: 1.0;"/><line style="stroke: #383838; stroke-width: 1.0;" x1="835.5" x2="980.5" y1="408.5938" y2="408.5938"/><text fill="#000000" font-family="sans-serif" font-size="13" lengthAdjust="spacingAndGlyphs" textLength="127" x="842.5" y="404.1621">put new RaftSession</text><polygon fill="#383838" points="696.5,418.9043,686.5,422.9043,696.5,426.9043,692.5,422.9043" style="stroke: #383838; stroke-width: 1.0;"/><line style="stroke: #383838; stroke-width: 1.0; stroke-dasharray: 2.0,2.0;" x1="690.5" x2="829.5" y1="422.9043" y2="422.9043"/><polygon fill="#383838" points="346,432.9043,336,436.9043,346,440.9043,342,436.9043" style="stroke: #383838; stroke-width: 1.0;"/><line style="stroke: #383838; stroke-width: 1.0; stroke-dasharray: 2.0,2.0;" x1="340" x2="679.5" y1="436.9043" y2="436.9043"/><polygon fill="#383838" points="216,446.9043,206,450.9043,216,454.9043,212,450.9043" style="stroke: #383838; stroke-width: 1.0;"/><line style="stroke: #383838; stroke-width: 1.0; stroke-dasharray: 2.0,2.0;" x1="210" x2="329" y1="450.9043" y2="450.9043"/></g></svg>