<?xml version="1.0" encoding="UTF-8" standalone="yes"?><svg xmlns="http://www.w3.org/2000/svg" xmlns:xlink="http://www.w3.org/1999/xlink" height="510px" style="width:1002px;height:510px;" version="1.1" viewBox="0 0 1002 510" width="1002px"><defs/><g><rect fill="#FFFFFF" height="396.6367" style="stroke: #383838; stroke-width: 1.0;" width="10" x="189" y="65.4883"/><rect fill="#FFFFFF" height="280.7051" style="stroke: #383838; stroke-width: 1.0;" width="10" x="556.5" y="167.4199"/><rect fill="#FFFFFF" height="223.084" style="stroke: #000000; stroke-width: 2.0;" width="502" x="499" y="212.041"/><rect fill="#FFFFFF" height="44.2656" style="stroke: none; stroke-width: 1.0;" width="502" x="499" y="258.6621"/><rect fill="#FFFFFF" height="132.1973" style="stroke: none; stroke-width: 1.0;" width="502" x="499" y="302.9277"/><line style="stroke: #383838; stroke-width: 1.0; stroke-dasharray: 5.0,5.0;" x1="72" x2="72" y1="34.4883" y2="480.125"/><line style="stroke: #383838; stroke-width: 1.0; stroke-dasharray: 5.0,5.0;" x1="194" x2="194" y1="34.4883" y2="480.125"/><line style="stroke: #383838; stroke-width: 1.0; stroke-dasharray: 5.0,5.0;" x1="373" x2="373" y1="34.4883" y2="480.125"/><line style="stroke: #383838; stroke-width: 1.0; stroke-dasharray: 5.0,5.0;" x1="457" x2="457" y1="34.4883" y2="480.125"/><line style="stroke: #383838; stroke-width: 1.0; stroke-dasharray: 5.0,5.0;" x1="561" x2="561" y1="34.4883" y2="480.125"/><line style="stroke: #383838; stroke-width: 1.0; stroke-dasharray: 5.0,5.0;" x1="700" x2="700" y1="34.4883" y2="480.125"/><line style="stroke: #383838; stroke-width: 1.0; stroke-dasharray: 5.0,5.0;" x1="832" x2="832" y1="34.4883" y2="480.125"/><line style="stroke: #383838; stroke-width: 1.0; stroke-dasharray: 5.0,5.0;" x1="958" x2="958" y1="34.4883" y2="480.125"/><rect fill="#F8F8F8" height="30.4883" style="stroke: #383838; stroke-width: 1.5;" width="129" x="8" y="3"/><text fill="#000000" font-family="sans-serif" font-size="14" lengthAdjust="spacingAndGlyphs" textLength="115" x="15" y="23.5352">CommandAction</text><rect fill="#F8F8F8" height="30.4883" style="stroke: #383838; stroke-width: 1.5;" width="129" x="8" y="479.125"/><text fill="#000000" font-family="sans-serif" font-size="14" lengthAdjust="spacingAndGlyphs" textLength="115" x="15" y="499.6602">CommandAction</text><rect fill="#F8F8F8" height="30.4883" style="stroke: #383838; stroke-width: 1.5;" width="94" x="147" y="3"/><text fill="#000000" font-family="sans-serif" font-size="14" lengthAdjust="spacingAndGlyphs" textLength="80" x="154" y="23.5352">LeaderState</text><rect fill="#F8F8F8" height="30.4883" style="stroke: #383838; stroke-width: 1.5;" width="94" x="147" y="479.125"/><text fill="#000000" font-family="sans-serif" font-size="14" lengthAdjust="spacingAndGlyphs" textLength="80" x="154" y="499.6602">LeaderState</text><rect fill="#F8F8F8" height="30.4883" style="stroke: #383838; stroke-width: 1.5;" width="66" x="340" y="3"/><text fill="#000000" font-family="sans-serif" font-size="14" lengthAdjust="spacingAndGlyphs" textLength="52" x="347" y="23.5352">RaftLog</text><rect fill="#F8F8F8" height="30.4883" style="stroke: #383838; stroke-width: 1.5;" width="66" x="340" y="479.125"/><text fill="#000000" font-family="sans-serif" font-size="14" lengthAdjust="spacingAndGlyphs" textLength="52" x="347" y="499.6602">RaftLog</text><rect fill="#F8F8F8" height="30.4883" style="stroke: #383838; stroke-width: 1.5;" width="83" x="416" y="3"/><text fill="#000000" font-family="sans-serif" font-size="14" lengthAdjust="spacingAndGlyphs" textLength="69" x="423" y="23.5352">Replicator</text><rect fill="#F8F8F8" height="30.4883" style="stroke: #383838; stroke-width: 1.5;" width="83" x="416" y="479.125"/><text fill="#000000" font-family="sans-serif" font-size="14" lengthAdjust="spacingAndGlyphs" textLength="69" x="423" y="499.6602">Replicator</text><rect fill="#F8F8F8" height="30.4883" style="stroke: #383838; stroke-width: 1.5;" width="105" x="509" y="3"/><text fill="#000000" font-family="sans-serif" font-size="14" lengthAdjust="spacingAndGlyphs" textLength="91" x="516" y="23.5352">StateMachine</text><rect fill="#F8F8F8" height="30.4883" style="stroke: #383838; stroke-width: 1.5;" width="105" x="509" y="479.125"/><text fill="#000000" font-family="sans-serif" font-size="14" lengthAdjust="spacingAndGlyphs" textLength="91" x="516" y="499.6602">StateMachine</text><rect fill="#F8F8F8" height="30.4883" style="stroke: #383838; stroke-width: 1.5;" width="75" x="663" y="3"/><text fill="#000000" font-family="sans-serif" font-size="14" lengthAdjust="spacingAndGlyphs" textLength="61" x="670" y="23.5352">RaftState</text><rect fill="#F8F8F8" height="30.4883" style="stroke: #383838; stroke-width: 1.5;" width="75" x="663" y="479.125"/><text fill="#000000" font-family="sans-serif" font-size="14" lengthAdjust="spacingAndGlyphs" textLength="61" x="670" y="499.6602">RaftState</text><rect fill="#F8F8F8" height="30.4883" style="stroke: #383838; stroke-width: 1.5;" width="168" x="748" y="3"/><text fill="#000000" font-family="sans-serif" font-size="14" lengthAdjust="spacingAndGlyphs" textLength="154" x="755" y="23.5352">ResourceStateMachine</text><rect fill="#F8F8F8" height="30.4883" style="stroke: #383838; stroke-width: 1.5;" width="168" x="748" y="479.125"/><text fill="#000000" font-family="sans-serif" font-size="14" lengthAdjust="spacingAndGlyphs" textLength="154" x="755" y="499.6602">ResourceStateMachine</text><rect fill="#F8F8F8" height="30.4883" style="stroke: #383838; stroke-width: 1.5;" width="65" x="926" y="3"/><text fill="#000000" font-family="sans-serif" font-size="14" lengthAdjust="spacingAndGlyphs" textLength="51" x="933" y="23.5352">session</text><rect fill="#F8F8F8" height="30.4883" style="stroke: #383838; stroke-width: 1.5;" width="65" x="926" y="479.125"/><text fill="#000000" font-family="sans-serif" font-size="14" lengthAdjust="spacingAndGlyphs" textLength="51" x="933" y="499.6602">session</text><rect fill="#FFFFFF" height="396.6367" style="stroke: #383838; stroke-width: 1.0;" width="10" x="189" y="65.4883"/><rect fill="#FFFFFF" height="280.7051" style="stroke: #383838; stroke-width: 1.0;" width="10" x="556.5" y="167.4199"/><polygon fill="#383838" points="177,61.4883,187,65.4883,177,69.4883,181,65.4883" style="stroke: #383838; stroke-width: 1.0;"/><line style="stroke: #383838; stroke-width: 1.0;" x1="72.5" x2="183" y1="65.4883" y2="65.4883"/><text fill="#000000" font-family="sans-serif" font-size="13" lengthAdjust="spacingAndGlyphs" textLength="70" x="79.5" y="61.0566">command()</text><polygon fill="#383838" points="361,90.7988,371,94.7988,361,98.7988,365,94.7988" style="stroke: #383838; stroke-width: 1.0;"/><line style="stroke: #383838; stroke-width: 1.0;" x1="199" x2="367" y1="94.7988" y2="94.7988"/><text fill="#000000" font-family="sans-serif" font-size="13" lengthAdjust="spacingAndGlyphs" textLength="150" x="206" y="90.3672">appendEntry(Command)</text><polygon fill="#383838" points="445.5,120.1094,455.5,124.1094,445.5,128.1094,449.5,124.1094" style="stroke: #383838; stroke-width: 1.0;"/><line style="stroke: #383838; stroke-width: 1.0;" x1="199" x2="451.5" y1="124.1094" y2="124.1094"/><text fill="#000000" font-family="sans-serif" font-size="13" lengthAdjust="spacingAndGlyphs" textLength="120" x="206" y="119.6777">commit(Command)</text><polygon fill="#383838" points="210,134.4199,200,138.4199,210,142.4199,206,138.4199" style="stroke: #383838; stroke-width: 1.0;"/><line style="stroke: #383838; stroke-width: 1.0; stroke-dasharray: 2.0,2.0;" x1="204" x2="456.5" y1="138.4199" y2="138.4199"/><polygon fill="#383838" points="544.5,163.4199,554.5,167.4199,544.5,171.4199,548.5,167.4199" style="stroke: #383838; stroke-width: 1.0;"/><line style="stroke: #383838; stroke-width: 1.0;" x1="199" x2="550.5" y1="167.4199" y2="167.4199"/><text fill="#000000" font-family="sans-serif" font-size="13" lengthAdjust="spacingAndGlyphs" textLength="106" x="206" y="162.9883">apply(Command)</text><polygon fill="#383838" points="688.5,192.7305,698.5,196.7305,688.5,200.7305,692.5,196.7305" style="stroke: #383838; stroke-width: 1.0;"/><line style="stroke: #383838; stroke-width: 1.0;" x1="566.5" x2="694.5" y1="196.7305" y2="196.7305"/><text fill="#000000" font-family="sans-serif" font-size="13" lengthAdjust="spacingAndGlyphs" textLength="106" x="573.5" y="192.2988">apply(Command)</text><rect fill="none" height="223.084" style="stroke: #000000; stroke-width: 2.0;" width="502" x="499" y="212.041"/><polygon fill="#EEEEEE" points="499,212.041,561,212.041,561,219.041,551,229.041,499,229.041,499,212.041" style="stroke: #000000; stroke-width: 2.0;"/><text fill="#000000" font-family="sans-serif" font-size="13" font-weight="bold" lengthAdjust="spacingAndGlyphs" textLength="17" x="514" y="225.6094">alt</text><text fill="#000000" font-family="sans-serif" font-size="11" font-weight="bold" lengthAdjust="spacingAndGlyphs" textLength="177" x="576" y="224.6758">[no session or session timeout]</text><polygon fill="#383838" points="577.5,246.3516,567.5,250.3516,577.5,254.3516,573.5,250.3516" style="stroke: #383838; stroke-width: 1.0;"/><line style="stroke: #383838; stroke-width: 1.0; stroke-dasharray: 2.0,2.0;" x1="571.5" x2="699.5" y1="250.3516" y2="250.3516"/><text fill="#000000" font-family="sans-serif" font-size="13" lengthAdjust="spacingAndGlyphs" textLength="110" x="583.5" y="245.9199">unknown session</text><line style="stroke: #000000; stroke-width: 1.0; stroke-dasharray: 2.0,2.0;" x1="499" x2="1001" y1="259.6621" y2="259.6621"/><text fill="#000000" font-family="sans-serif" font-size="11" font-weight="bold" lengthAdjust="spacingAndGlyphs" textLength="127" x="504" y="270.2969">[session has response]</text><polygon fill="#383838" points="577.5,290.6172,567.5,294.6172,577.5,298.6172,573.5,294.6172" style="stroke: #383838; stroke-width: 1.0;"/><line style="stroke: #383838; stroke-width: 1.0; stroke-dasharray: 2.0,2.0;" x1="571.5" x2="699.5" y1="294.6172" y2="294.6172"/><text fill="#000000" font-family="sans-serif" font-size="13" lengthAdjust="spacingAndGlyphs" textLength="57" x="583.5" y="290.1855">response</text><line style="stroke: #000000; stroke-width: 1.0; stroke-dasharray: 2.0,2.0;" x1="499" x2="1001" y1="303.9277" y2="303.9277"/><text fill="#000000" font-family="sans-serif" font-size="11" font-weight="bold" lengthAdjust="spacingAndGlyphs" textLength="108" x="504" y="314.5625">[execute command]</text><polygon fill="#383838" points="820,334.8828,830,338.8828,820,342.8828,824,338.8828" style="stroke: #383838; stroke-width: 1.0;"/><line style="stroke: #383838; stroke-width: 1.0;" x1="700.5" x2="826" y1="338.8828" y2="338.8828"/><text fill="#000000" font-family="sans-serif" font-size="13" lengthAdjust="spacingAndGlyphs" textLength="106" x="707.5" y="334.4512">apply(Command)</text><polygon fill="#383838" points="711.5,364.1934,701.5,368.1934,711.5,372.1934,707.5,368.1934" style="stroke: #383838; stroke-width: 1.0;"/><line style="stroke: #383838; stroke-width: 1.0; stroke-dasharray: 2.0,2.0;" x1="705.5" x2="831" y1="368.1934" y2="368.1934"/><text fill="#000000" font-family="sans-serif" font-size="13" lengthAdjust="spacingAndGlyphs" textLength="102" x="717.5" y="363.7617">command result</text><polygon fill="#383838" points="946.5,393.5039,956.5,397.5039,946.5,401.5039,950.5,397.5039" style="stroke: #383838; stroke-width: 1.0;"/><line style="stroke: #383838; stroke-width: 1.0;" x1="700.5" x2="952.5" y1="397.5039" y2="397.5039"/><text fill="#000000" font-family="sans-serif" font-size="13" lengthAdjust="spacingAndGlyphs" textLength="61" x="707.5" y="393.0723">put result</text><polygon fill="#383838" points="577.5,422.8145,567.5,426.8145,577.5,430.8145,573.5,426.8145" style="stroke: #383838; stroke-width: 1.0;"/><line style="stroke: #383838; stroke-width: 1.0; stroke-dasharray: 2.0,2.0;" x1="571.5" x2="699.5" y1="426.8145" y2="426.8145"/><text fill="#000000" font-family="sans-serif" font-size="13" lengthAdjust="spacingAndGlyphs" textLength="57" x="583.5" y="422.3828">response</text><polygon fill="#383838" points="210,444.125,200,448.125,210,452.125,206,448.125" style="stroke: #383838; stroke-width: 1.0;"/><line style="stroke: #383838; stroke-width: 1.0; stroke-dasharray: 2.0,2.0;" x1="204" x2="560.5" y1="448.125" y2="448.125"/><polygon fill="#383838" points="83.5,458.125,73.5,462.125,83.5,466.125,79.5,462.125" style="stroke: #383838; stroke-width: 1.0;"/><line style="stroke: #383838; stroke-width: 1.0; stroke-dasharray: 2.0,2.0;" x1="77.5" x2="193" y1="462.125" y2="462.125"/></g></svg>