<?xml version="1.0" encoding="UTF-8" standalone="yes"?><svg xmlns="http://www.w3.org/2000/svg" xmlns:xlink="http://www.w3.org/1999/xlink" height="317px" style="width:674px;height:317px;" version="1.1" viewBox="0 0 674 317" width="674px"><defs/><g><rect fill="#FFFFFF" height="115.2422" style="stroke: #383838; stroke-width: 1.0;" width="10" x="450.5" y="153.4199"/><line style="stroke: #383838; stroke-width: 1.0; stroke-dasharray: 5.0,5.0;" x1="35" x2="35" y1="34.4883" y2="286.6621"/><line style="stroke: #383838; stroke-width: 1.0; stroke-dasharray: 5.0,5.0;" x1="185" x2="185" y1="34.4883" y2="286.6621"/><line style="stroke: #383838; stroke-width: 1.0; stroke-dasharray: 5.0,5.0;" x1="282" x2="282" y1="34.4883" y2="286.6621"/><line style="stroke: #383838; stroke-width: 1.0; stroke-dasharray: 5.0,5.0;" x1="455" x2="455" y1="34.4883" y2="286.6621"/><line style="stroke: #383838; stroke-width: 1.0; stroke-dasharray: 5.0,5.0;" x1="632.5" x2="632.5" y1="34.4883" y2="286.6621"/><rect fill="#F8F8F8" height="30.4883" style="stroke: #383838; stroke-width: 1.5;" width="54" x="8" y="3"/><text fill="#000000" font-family="sans-serif" font-size="14" lengthAdjust="spacingAndGlyphs" textLength="40" x="15" y="23.5352">Client</text><rect fill="#F8F8F8" height="30.4883" style="stroke: #383838; stroke-width: 1.5;" width="54" x="8" y="285.6621"/><text fill="#000000" font-family="sans-serif" font-size="14" lengthAdjust="spacingAndGlyphs" textLength="40" x="15" y="306.1973">Client</text><rect fill="#F8F8F8" height="30.4883" style="stroke: #383838; stroke-width: 1.5;" width="50" x="160" y="3"/><text fill="#000000" font-family="sans-serif" font-size="14" lengthAdjust="spacingAndGlyphs" textLength="36" x="167" y="23.5352">Node</text><rect fill="#F8F8F8" height="30.4883" style="stroke: #383838; stroke-width: 1.5;" width="50" x="160" y="285.6621"/><text fill="#000000" font-family="sans-serif" font-size="14" lengthAdjust="spacingAndGlyphs" textLength="36" x="167" y="306.1973">Node</text><rect fill="#F8F8F8" height="30.4883" style="stroke: #383838; stroke-width: 1.5;" width="125" x="220" y="3"/><text fill="#000000" font-family="sans-serif" font-size="14" lengthAdjust="spacingAndGlyphs" textLength="111" x="227" y="23.5352">ResourceService</text><rect fill="#F8F8F8" height="30.4883" style="stroke: #383838; stroke-width: 1.5;" width="125" x="220" y="285.6621"/><text fill="#000000" font-family="sans-serif" font-size="14" lengthAdjust="spacingAndGlyphs" textLength="111" x="227" y="306.1973">ResourceService</text><rect fill="#F8F8F8" height="30.4883" style="stroke: #383838; stroke-width: 1.5;" width="115" x="398" y="3"/><text fill="#000000" font-family="sans-serif" font-size="14" lengthAdjust="spacingAndGlyphs" textLength="101" x="405" y="23.5352">RaftStateClient</text><rect fill="#F8F8F8" height="30.4883" style="stroke: #383838; stroke-width: 1.5;" width="115" x="398" y="285.6621"/><text fill="#000000" font-family="sans-serif" font-size="14" lengthAdjust="spacingAndGlyphs" textLength="101" x="405" y="306.1973">RaftStateClient</text><rect fill="#F8F8F8" height="30.4883" style="stroke: #383838; stroke-width: 1.5;" width="82" x="591.5" y="3"/><text fill="#000000" font-family="sans-serif" font-size="14" lengthAdjust="spacingAndGlyphs" textLength="68" x="598.5" y="23.5352">Transport</text><rect fill="#F8F8F8" height="30.4883" style="stroke: #383838; stroke-width: 1.5;" width="82" x="591.5" y="285.6621"/><text fill="#000000" font-family="sans-serif" font-size="14" lengthAdjust="spacingAndGlyphs" textLength="68" x="598.5" y="306.1973">Transport</text><rect fill="#FFFFFF" height="115.2422" style="stroke: #383838; stroke-width: 1.0;" width="10" x="450.5" y="153.4199"/><polygon fill="#383838" points="173,61.4883,183,65.4883,173,69.4883,177,65.4883" style="stroke: #383838; stroke-width: 1.0;"/><line style="stroke: #383838; stroke-width: 1.0;" x1="35" x2="179" y1="65.4883" y2="65.4883"/><text fill="#000000" font-family="sans-serif" font-size="13" lengthAdjust="spacingAndGlyphs" textLength="126" x="42" y="61.0566">get resource service</text><polygon fill="#383838" points="46,90.7988,36,94.7988,46,98.7988,42,94.7988" style="stroke: #383838; stroke-width: 1.0;"/><line style="stroke: #383838; stroke-width: 1.0; stroke-dasharray: 2.0,2.0;" x1="40" x2="184" y1="94.7988" y2="94.7988"/><text fill="#000000" font-family="sans-serif" font-size="13" lengthAdjust="spacingAndGlyphs" textLength="101" x="52" y="90.3672">ResourceService</text><polygon fill="#383838" points="270.5,120.1094,280.5,124.1094,270.5,128.1094,274.5,124.1094" style="stroke: #383838; stroke-width: 1.0;"/><line style="stroke: #383838; stroke-width: 1.0;" x1="35" x2="276.5" y1="124.1094" y2="124.1094"/><text fill="#000000" font-family="sans-serif" font-size="13" lengthAdjust="spacingAndGlyphs" textLength="70" x="42" y="119.6777">create path</text><polygon fill="#383838" points="438.5,149.4199,448.5,153.4199,438.5,157.4199,442.5,153.4199" style="stroke: #383838; stroke-width: 1.0;"/><line style="stroke: #383838; stroke-width: 1.0;" x1="282.5" x2="444.5" y1="153.4199" y2="153.4199"/><text fill="#000000" font-family="sans-serif" font-size="13" lengthAdjust="spacingAndGlyphs" textLength="149" x="289.5" y="148.9883">submit PathExists(path)</text><line style="stroke: #383838; stroke-width: 1.0;" x1="460.5" x2="502.5" y1="183.041" y2="183.041"/><line style="stroke: #383838; stroke-width: 1.0;" x1="502.5" x2="502.5" y1="183.041" y2="196.041"/><line style="stroke: #383838; stroke-width: 1.0;" x1="461.5" x2="502.5" y1="196.041" y2="196.041"/><polygon fill="#383838" points="471.5,192.041,461.5,196.041,471.5,200.041,467.5,196.041" style="stroke: #383838; stroke-width: 1.0;"/><text fill="#000000" font-family="sans-serif" font-size="13" lengthAdjust="spacingAndGlyphs" textLength="92" x="467.5" y="178.2988">select member</text><polygon fill="#383838" points="620.5,221.041,630.5,225.041,620.5,229.041,624.5,225.041" style="stroke: #383838; stroke-width: 1.0;"/><line style="stroke: #383838; stroke-width: 1.0;" x1="460.5" x2="626.5" y1="225.041" y2="225.041"/><text fill="#000000" font-family="sans-serif" font-size="13" lengthAdjust="spacingAndGlyphs" textLength="148" x="467.5" y="220.6094">send CommandRequest</text><polygon fill="#383838" points="471.5,250.3516,461.5,254.3516,471.5,258.3516,467.5,254.3516" style="stroke: #383838; stroke-width: 1.0;"/><line style="stroke: #383838; stroke-width: 1.0; stroke-dasharray: 2.0,2.0;" x1="465.5" x2="631.5" y1="254.3516" y2="254.3516"/><text fill="#000000" font-family="sans-serif" font-size="13" lengthAdjust="spacingAndGlyphs" textLength="124" x="477.5" y="249.9199">CommandResponse</text><polygon fill="#383838" points="46,264.6621,36,268.6621,46,272.6621,42,268.6621" style="stroke: #383838; stroke-width: 1.0;"/><line style="stroke: #383838; stroke-width: 1.0; stroke-dasharray: 2.0,2.0;" x1="40" x2="454.5" y1="268.6621" y2="268.6621"/></g></svg>